<?xml version="1.0" encoding="utf-8"?>
<!-- Generator: Adobe Illustrator 16.0.0, SVG Export Plug-In . SVG Version: 6.00 Build 0)  -->
<!DOCTYPE svg PUBLIC "-//W3C//DTD SVG 1.1//EN" "http://www.w3.org/Graphics/SVG/1.1/DTD/svg11.dtd">
<svg version="1.1" id="Layer_1" xmlns="http://www.w3.org/2000/svg" xmlns:xlink="http://www.w3.org/1999/xlink" x="0px" y="0px"
	 width="41.731px" height="66.241px" viewBox="0 0 41.731 66.241" enable-background="new 0 0 41.731 66.241" xml:space="preserve">
<g>
	<path fill="none" stroke="#FFFFFF" stroke-width="2" stroke-linecap="round" stroke-miterlimit="10" d="M32.895,15.713
		c-0.102-6.782-5.622-12.25-12.428-12.25S8.141,8.932,8.039,15.713h-0.01v16.125h0.003c0.034,6.84,5.587,12.375,12.435,12.375
		s12.4-5.535,12.435-12.375h0.003V15.713H32.895z"/>
	
		<line fill="none" stroke="#FFFFFF" stroke-width="2" stroke-linecap="round" stroke-miterlimit="10" x1="8.592" y1="14.526" x2="13.217" y2="14.526"/>
	
		<line fill="none" stroke="#FFFFFF" stroke-width="2" stroke-linecap="round" stroke-miterlimit="10" x1="8.592" y1="19.37" x2="13.217" y2="19.37"/>
	
		<line fill="none" stroke="#FFFFFF" stroke-width="2" stroke-linecap="round" stroke-miterlimit="10" x1="27.967" y1="14.526" x2="32.592" y2="14.526"/>
	
		<line fill="none" stroke="#FFFFFF" stroke-width="2" stroke-linecap="round" stroke-miterlimit="10" x1="27.967" y1="19.37" x2="32.592" y2="19.37"/>
	
		<line fill="none" stroke="#FFFFFF" stroke-width="2" stroke-linecap="round" stroke-miterlimit="10" x1="19.592" y1="29.901" x2="32.467" y2="29.901"/>
	
		<line fill="none" stroke="#FFFFFF" stroke-width="2" stroke-linecap="round" stroke-miterlimit="10" x1="14.592" y1="29.901" x2="15.154" y2="29.901"/>
	
		<line fill="none" stroke="#FFFFFF" stroke-width="2" stroke-linecap="round" stroke-miterlimit="10" x1="8.592" y1="24.213" x2="32.592" y2="24.213"/>
	<g>
		
			<line fill="none" stroke="#FFFFFF" stroke-width="2" stroke-linecap="round" stroke-miterlimit="10" x1="38.398" y1="24.148" x2="38.398" y2="23.213"/>
		<path fill="none" stroke="#FFFFFF" stroke-width="2" stroke-linecap="round" stroke-miterlimit="10" d="M3.451,23.213v8.114h0.005
			c0.048,9.611,7.848,17.386,17.469,17.386c9.62,0,17.421-7.775,17.469-17.386h0.005v-3.172"/>
	</g>
	<g>
		<path fill="none" stroke="#FFFFFF" stroke-width="2" stroke-linecap="round" stroke-miterlimit="10" d="M31.779,59.526
			c0-1.104-0.896-2-2-2h-18c-1.104,0-2,0.896-2,2v3.438h22V59.526z"/>
	</g>
	
		<line fill="none" stroke="#FFFFFF" stroke-width="2" stroke-linecap="round" stroke-miterlimit="10" x1="20.654" y1="48.838" x2="20.654" y2="57.401"/>
</g>
</svg>
