<?xml version="1.0" encoding="utf-8"?>
<!-- Generator: Adobe Illustrator 16.0.0, SVG Export Plug-In . SVG Version: 6.00 Build 0)  -->
<!DOCTYPE svg PUBLIC "-//W3C//DTD SVG 1.1//EN" "http://www.w3.org/Graphics/SVG/1.1/DTD/svg11.dtd">
<svg version="1.1" id="Layer_1" xmlns="http://www.w3.org/2000/svg" xmlns:xlink="http://www.w3.org/1999/xlink" x="0px" y="0px"
	 width="55.5px" height="66.241px" viewBox="0 0 55.5 66.241" enable-background="new 0 0 55.5 66.241" xml:space="preserve">
<g>
	<g>
		
			<line fill="none" stroke="#FFFFFF" stroke-width="2" stroke-linecap="round" stroke-miterlimit="10" x1="45.575" y1="44.286" x2="41.814" y2="40.526"/>
		
			<line fill="none" stroke="#FFFFFF" stroke-width="2" stroke-linecap="round" stroke-miterlimit="10" x1="13.686" y1="12.396" x2="9.925" y2="8.637"/>
	</g>
	<g>
		
			<line fill="none" stroke="#FFFFFF" stroke-width="2" stroke-linecap="round" stroke-miterlimit="10" x1="9.925" y1="44.288" x2="13.686" y2="40.527"/>
		
			<line fill="none" stroke="#FFFFFF" stroke-width="2" stroke-linecap="round" stroke-miterlimit="10" x1="41.815" y1="12.398" x2="45.575" y2="8.638"/>
	</g>
	<path fill="none" stroke="#FFFFFF" stroke-width="2" stroke-linecap="round" stroke-miterlimit="10" d="M12.315,25.592
		c-0.016,0.289-0.023,0.579-0.023,0.871c0,0.42,0.009,0.834,0.03,1.248"/>
	<path fill="none" stroke="#FFFFFF" stroke-width="2" stroke-linecap="round" stroke-miterlimit="10" d="M12.717,30.698
		c0.234,1.091,0.586,2.273,1.101,3.64c1.225,3.25,6.1,8.625,6.35,11.375v12.375c0,0,0.125,6.375,7.25,6.375h0.65
		c7.125,0,7.25-6.375,7.25-6.375V45.713c0.25-2.75,5.125-8.125,6.35-11.375s1.525-5.461,1.525-7.875
		c0-8.629-6.996-15.625-15.625-15.625h0.35c-7.152,0-13.183,4.806-15.037,11.365"/>
	
		<line fill="none" stroke="#FFFFFF" stroke-width="2" stroke-linecap="round" stroke-miterlimit="10" x1="22.792" y1="29.046" x2="32.709" y2="29.046"/>
	
		<line fill="none" stroke="#FFFFFF" stroke-width="2" stroke-linecap="round" stroke-miterlimit="10" x1="27.542" y1="29.546" x2="27.542" y2="33.963"/>
	
		<line fill="none" stroke="#FFFFFF" stroke-width="2" stroke-linecap="round" stroke-miterlimit="10" x1="27.542" y1="38.547" x2="27.542" y2="39.631"/>
	
		<line fill="none" stroke="#FFFFFF" stroke-width="2" stroke-linecap="round" stroke-miterlimit="10" x1="27.542" y1="43.183" x2="27.542" y2="46.909"/>
	
		<line fill="none" stroke="#FFFFFF" stroke-width="2" stroke-linecap="round" stroke-miterlimit="10" x1="20.459" y1="47.547" x2="35.126" y2="47.547"/>
	
		<line fill="none" stroke="#FFFFFF" stroke-width="2" stroke-linecap="round" stroke-miterlimit="10" x1="20.459" y1="52.797" x2="35.126" y2="52.797"/>
	
		<line fill="none" stroke="#FFFFFF" stroke-width="2" stroke-linecap="round" stroke-miterlimit="10" x1="20.459" y1="58.047" x2="35.126" y2="58.047"/>
	
		<line fill="none" stroke="#FFFFFF" stroke-width="2" stroke-linecap="round" stroke-miterlimit="10" x1="27.751" y1="1.63" x2="27.751" y2="6.546"/>
	<g>
		
			<line fill="none" stroke="#FFFFFF" stroke-width="2" stroke-linecap="round" stroke-miterlimit="10" x1="2.542" y1="26.463" x2="7.859" y2="26.463"/>
		
			<line fill="none" stroke="#FFFFFF" stroke-width="2" stroke-linecap="round" stroke-miterlimit="10" x1="47.641" y1="26.463" x2="52.959" y2="26.463"/>
	</g>
</g>
</svg>
