<?xml version="1.0" encoding="utf-8"?>
<!-- Generator: Adobe Illustrator 16.0.0, SVG Export Plug-In . SVG Version: 6.00 Build 0)  -->
<!DOCTYPE svg PUBLIC "-//W3C//DTD SVG 1.1//EN" "http://www.w3.org/Graphics/SVG/1.1/DTD/svg11.dtd">
<svg version="1.1" id="Layer_1" xmlns="http://www.w3.org/2000/svg" xmlns:xlink="http://www.w3.org/1999/xlink" x="0px" y="0px"
	 width="66.646px" height="66.241px" viewBox="0 0 66.646 66.241" enable-background="new 0 0 66.646 66.241" xml:space="preserve">
<g>
	<path fill="none" stroke="#FFFFFF" stroke-width="2" stroke-linecap="round" stroke-miterlimit="10" d="M22.74,55.816v3.167
		c0,0,0.333,2.083-1.417,2.083s-16.583,0-16.583,0s-1.75-0.084-1.75-1.75s0-14.833,0-14.833s0.917-7.916,9.5-7.333"/>
	
		<line fill="none" stroke="#FFFFFF" stroke-width="2" stroke-linecap="round" stroke-miterlimit="10" x1="22.74" y1="51.149" x2="22.74" y2="52.983"/>
	<path fill="none" stroke="#FFFFFF" stroke-width="2" stroke-linecap="round" stroke-miterlimit="10" d="M19.657,36.816
		l12.166-12.833c0,0,1.158-1.367,1.334,0.75c0.166,2,0.084,4.5-1.25,6.5s-9.167,13.75-9.167,13.75v1.833"/>
	
		<ellipse fill="none" stroke="#FFFFFF" stroke-width="2" stroke-linecap="round" stroke-miterlimit="10" cx="15.907" cy="31.983" rx="5.5" ry="6.417"/>
	
		<line fill="none" stroke="#FFFFFF" stroke-width="2" stroke-linecap="round" stroke-miterlimit="10" x1="8.823" y1="45.066" x2="8.823" y2="60.816"/>
	<path fill="none" stroke="#FFFFFF" stroke-width="2" stroke-linecap="round" stroke-miterlimit="10" d="M54.157,37.15
		c8.583-0.583,9.5,7.333,9.5,7.333s0,13.167,0,14.833s-1.75,1.75-1.75,1.75s-14.833,0-16.583,0s-1.417-2.083-1.417-2.083V46.816
		v-1.833c0,0-7.833-11.75-9.167-13.75s-1.416-4.5-1.25-6.5c0.176-2.117,1.334-0.75,1.334-0.75L46.99,36.816"/>
	
		<ellipse fill="none" stroke="#FFFFFF" stroke-width="2" stroke-linecap="round" stroke-miterlimit="10" cx="50.74" cy="31.983" rx="5.5" ry="6.417"/>
	
		<line fill="none" stroke="#FFFFFF" stroke-width="2" stroke-linecap="round" stroke-miterlimit="10" x1="57.824" y1="50.066" x2="57.824" y2="60.816"/>
	
		<line fill="none" stroke="#FFFFFF" stroke-width="2" stroke-linecap="round" stroke-miterlimit="10" x1="57.824" y1="45.066" x2="57.824" y2="46.399"/>
	
		<line fill="none" stroke="#FFFFFF" stroke-width="2" stroke-linecap="round" stroke-miterlimit="10" x1="32.699" y1="4.066" x2="32.699" y2="12.899"/>
	
		<line fill="none" stroke="#FFFFFF" stroke-width="2" stroke-linecap="round" stroke-miterlimit="10" x1="21.407" y1="11.649" x2="25.74" y2="15.982"/>
	
		<line fill="none" stroke="#FFFFFF" stroke-width="2" stroke-linecap="round" stroke-miterlimit="10" x1="43.991" y1="11.649" x2="39.658" y2="15.982"/>
</g>
</svg>
